<mxfile host="app.diagrams.net" modified="2023-08-28T17:28:21.968Z" agent="Mozilla/5.0 (Windows NT 10.0; Win64; x64) AppleWebKit/537.36 (KHTML, like Gecko) Chrome/116.0.0.0 Safari/537.36" version="21.6.9" etag="5sHJWgE8n_BrKk7_Kcv4" type="github">
  <diagram name="Page-1" id="HzO_25xH5rC3ny7MKxbv">
    <mxGraphModel>
      <root>
        <mxCell id="0" />
        <mxCell id="1" parent="0" />
      </root>
    </mxGraphModel>
  </diagram>
</mxfile>
